<svg width="249" height="100" viewBox="0 0 249 294" fill="none" xmlns="http://www.w3.org/2000/svg">
<path d="M84.9183 150.924C104.012 159.94 114.385 177.791 114.246 199.223C114.025 233.422 86.5426 252.169 57.3592 251.98C57.3592 251.98 57.3592 251.98 57.1312 251.978L57.3438 219.147C57.5718 219.148 57.5718 219.148 57.5718 219.148C69.6556 219.227 80.4245 211.088 80.5028 199.004C80.5899 185.553 68.1033 177.264 57.8465 176.741C56.2505 176.731 43.9388 176.651 30.755 170.41C11.8875 161.623 1.27654 145.366 1.41388 124.163C1.63539 89.9632 29.3572 69.3944 58.5406 69.5834C89.7759 69.7857 113.808 90.9178 114.063 121.928C114.286 122.614 113.139 123.746 111.543 123.736L83.0436 123.551C81.6756 123.542 80.543 122.395 80.5474 121.711C80.1756 108.712 70.1837 102.491 58.3279 102.415C45.7882 102.333 35.4797 109.791 35.3852 124.383C35.2995 137.606 46.427 144.518 58.0547 144.594C59.1947 144.601 71.9624 144.684 84.9183 150.924Z" fill="#7F6FB1"/>
<path d="M182.333 69.6C189.469 69.6 242.543 70.715 242.543 123.12C242.543 175.525 186.57 176.194 182.333 176.194H155.796V245.993C155.796 246.885 155.127 248 153.566 248H124.576C123.461 248 122.346 246.885 122.346 245.993V143.19H155.796H182.333C186.793 143.19 208.647 142.744 208.647 123.12C208.647 103.496 186.347 102.381 182.333 102.381H155.796H122.346V71.607C122.346 70.715 123.461 69.6 124.576 69.6H182.333Z" fill="#408B81"/>
<path d="M75.5813 289.2C74.488 289.2 73.4413 289.047 72.4413 288.74C71.4413 288.42 70.648 288.013 70.0613 287.52L70.9613 285.5C71.5213 285.94 72.2147 286.307 73.0413 286.6C73.868 286.893 74.7147 287.04 75.5813 287.04C76.3147 287.04 76.908 286.96 77.3613 286.8C77.8147 286.64 78.148 286.427 78.3613 286.16C78.5747 285.88 78.6813 285.567 78.6813 285.22C78.6813 284.793 78.528 284.453 78.2213 284.2C77.9147 283.933 77.5147 283.727 77.0213 283.58C76.5413 283.42 76.0013 283.273 75.4013 283.14C74.8147 283.007 74.2213 282.853 73.6213 282.68C73.0347 282.493 72.4947 282.26 72.0013 281.98C71.5213 281.687 71.128 281.3 70.8213 280.82C70.5147 280.34 70.3613 279.727 70.3613 278.98C70.3613 278.22 70.5613 277.527 70.9613 276.9C71.3747 276.26 71.9947 275.753 72.8213 275.38C73.6613 274.993 74.7213 274.8 76.0013 274.8C76.8413 274.8 77.6747 274.907 78.5013 275.12C79.328 275.333 80.048 275.64 80.6613 276.04L79.8413 278.06C79.2147 277.687 78.568 277.413 77.9013 277.24C77.2347 277.053 76.5947 276.96 75.9813 276.96C75.2613 276.96 74.6747 277.047 74.2213 277.22C73.7813 277.393 73.4547 277.62 73.2413 277.9C73.0413 278.18 72.9413 278.5 72.9413 278.86C72.9413 279.287 73.088 279.633 73.3813 279.9C73.688 280.153 74.0813 280.353 74.5613 280.5C75.0547 280.647 75.6013 280.793 76.2013 280.94C76.8013 281.073 77.3947 281.227 77.9813 281.4C78.5813 281.573 79.1213 281.8 79.6013 282.08C80.0947 282.36 80.488 282.74 80.7813 283.22C81.088 283.7 81.2413 284.307 81.2413 285.04C81.2413 285.787 81.0347 286.48 80.6213 287.12C80.2213 287.747 79.6013 288.253 78.7613 288.64C77.9213 289.013 76.8613 289.2 75.5813 289.2ZM90.3795 289.2C89.2861 289.2 88.2795 289.02 87.3595 288.66C86.4395 288.3 85.6395 287.8 84.9595 287.16C84.2795 286.507 83.7528 285.747 83.3795 284.88C83.0061 284 82.8195 283.04 82.8195 282C82.8195 280.96 83.0061 280.007 83.3795 279.14C83.7528 278.26 84.2795 277.5 84.9595 276.86C85.6395 276.207 86.4395 275.7 87.3595 275.34C88.2795 274.98 89.2795 274.8 90.3595 274.8C91.4528 274.8 92.4528 274.98 93.3595 275.34C94.2795 275.7 95.0795 276.207 95.7595 276.86C96.4395 277.5 96.9661 278.26 97.3395 279.14C97.7128 280.007 97.8995 280.96 97.8995 282C97.8995 283.04 97.7128 284 97.3395 284.88C96.9661 285.76 96.4395 286.52 95.7595 287.16C95.0795 287.8 94.2795 288.3 93.3595 288.66C92.4528 289.02 91.4595 289.2 90.3795 289.2ZM90.3595 286.92C91.0661 286.92 91.7195 286.8 92.3195 286.56C92.9195 286.32 93.4395 285.98 93.8795 285.54C94.3195 285.087 94.6595 284.567 94.8995 283.98C95.1528 283.38 95.2795 282.72 95.2795 282C95.2795 281.28 95.1528 280.627 94.8995 280.04C94.6595 279.44 94.3195 278.92 93.8795 278.48C93.4395 278.027 92.9195 277.68 92.3195 277.44C91.7195 277.2 91.0661 277.08 90.3595 277.08C89.6528 277.08 88.9995 277.2 88.3995 277.44C87.8128 277.68 87.2928 278.027 86.8395 278.48C86.3995 278.92 86.0528 279.44 85.7995 280.04C85.5595 280.627 85.4395 281.28 85.4395 282C85.4395 282.707 85.5595 283.36 85.7995 283.96C86.0528 284.56 86.3995 285.087 86.8395 285.54C87.2795 285.98 87.7995 286.32 88.3995 286.56C88.9995 286.8 89.6528 286.92 90.3595 286.92ZM100.655 289V275H103.255V286.8H110.575V289H100.655ZM118.934 289.2C117.841 289.2 116.834 289.02 115.914 288.66C114.994 288.3 114.194 287.8 113.514 287.16C112.834 286.507 112.307 285.747 111.934 284.88C111.561 284 111.374 283.04 111.374 282C111.374 280.96 111.561 280.007 111.934 279.14C112.307 278.26 112.834 277.5 113.514 276.86C114.194 276.207 114.994 275.7 115.914 275.34C116.834 274.98 117.834 274.8 118.914 274.8C120.007 274.8 121.007 274.98 121.914 275.34C122.834 275.7 123.634 276.207 124.314 276.86C124.994 277.5 125.521 278.26 125.894 279.14C126.267 280.007 126.454 280.96 126.454 282C126.454 283.04 126.267 284 125.894 284.88C125.521 285.76 124.994 286.52 124.314 287.16C123.634 287.8 122.834 288.3 121.914 288.66C121.007 289.02 120.014 289.2 118.934 289.2ZM118.914 286.92C119.621 286.92 120.274 286.8 120.874 286.56C121.474 286.32 121.994 285.98 122.434 285.54C122.874 285.087 123.214 284.567 123.454 283.98C123.707 283.38 123.834 282.72 123.834 282C123.834 281.28 123.707 280.627 123.454 280.04C123.214 279.44 122.874 278.92 122.434 278.48C121.994 278.027 121.474 277.68 120.874 277.44C120.274 277.2 119.621 277.08 118.914 277.08C118.207 277.08 117.554 277.2 116.954 277.44C116.367 277.68 115.847 278.027 115.394 278.48C114.954 278.92 114.607 279.44 114.354 280.04C114.114 280.627 113.994 281.28 113.994 282C113.994 282.707 114.114 283.36 114.354 283.96C114.607 284.56 114.954 285.087 115.394 285.54C115.834 285.98 116.354 286.32 116.954 286.56C117.554 286.8 118.207 286.92 118.914 286.92Z" fill="#408B81"/>
<path d="M134.737 289V275H140.497C141.737 275 142.797 275.2 143.677 275.6C144.571 276 145.257 276.573 145.737 277.32C146.217 278.067 146.457 278.953 146.457 279.98C146.457 281.007 146.217 281.893 145.737 282.64C145.257 283.387 144.571 283.96 143.677 284.36C142.797 284.76 141.737 284.96 140.497 284.96H136.177L137.337 283.74V289H134.737ZM137.337 284.02L136.177 282.76H140.377C141.524 282.76 142.384 282.52 142.957 282.04C143.544 281.547 143.837 280.86 143.837 279.98C143.837 279.087 143.544 278.4 142.957 277.92C142.384 277.44 141.524 277.2 140.377 277.2H136.177L137.337 275.92V284.02ZM149.054 289V275H154.814C156.054 275 157.114 275.2 157.994 275.6C158.887 276 159.574 276.573 160.054 277.32C160.534 278.067 160.774 278.953 160.774 279.98C160.774 281.007 160.534 281.893 160.054 282.64C159.574 283.373 158.887 283.94 157.994 284.34C157.114 284.727 156.054 284.92 154.814 284.92H150.494L151.654 283.74V289H149.054ZM158.214 289L154.674 283.92H157.454L161.014 289H158.214ZM151.654 284.02L150.494 282.78H154.694C155.84 282.78 156.7 282.533 157.274 282.04C157.86 281.547 158.154 280.86 158.154 279.98C158.154 279.087 157.86 278.4 157.274 277.92C156.7 277.44 155.84 277.2 154.694 277.2H150.494L151.654 275.92V284.02ZM170.243 289.2C169.149 289.2 168.143 289.02 167.223 288.66C166.303 288.3 165.503 287.8 164.823 287.16C164.143 286.507 163.616 285.747 163.243 284.88C162.869 284 162.683 283.04 162.683 282C162.683 280.96 162.869 280.007 163.243 279.14C163.616 278.26 164.143 277.5 164.823 276.86C165.503 276.207 166.303 275.7 167.223 275.34C168.143 274.98 169.143 274.8 170.223 274.8C171.316 274.8 172.316 274.98 173.223 275.34C174.143 275.7 174.943 276.207 175.623 276.86C176.303 277.5 176.829 278.26 177.203 279.14C177.576 280.007 177.763 280.96 177.763 282C177.763 283.04 177.576 284 177.203 284.88C176.829 285.76 176.303 286.52 175.623 287.16C174.943 287.8 174.143 288.3 173.223 288.66C172.316 289.02 171.323 289.2 170.243 289.2ZM170.223 286.92C170.929 286.92 171.583 286.8 172.183 286.56C172.783 286.32 173.303 285.98 173.743 285.54C174.183 285.087 174.523 284.567 174.763 283.98C175.016 283.38 175.143 282.72 175.143 282C175.143 281.28 175.016 280.627 174.763 280.04C174.523 279.44 174.183 278.92 173.743 278.48C173.303 278.027 172.783 277.68 172.183 277.44C171.583 277.2 170.929 277.08 170.223 277.08C169.516 277.08 168.863 277.2 168.263 277.44C167.676 277.68 167.156 278.027 166.703 278.48C166.263 278.92 165.916 279.44 165.663 280.04C165.423 280.627 165.303 281.28 165.303 282C165.303 282.707 165.423 283.36 165.663 283.96C165.916 284.56 166.263 285.087 166.703 285.54C167.143 285.98 167.663 286.32 168.263 286.56C168.863 286.8 169.516 286.92 170.223 286.92Z" fill="#7F6FB1"/>
</svg>
